<svg id="Edit_Test" data-name="Edit Test" xmlns="http://www.w3.org/2000/svg" viewBox="0 0 14.94 14.94">
  <defs>
    <style>
      .cls-1 {
        fill: #4f4f4f;
      }

      .cls-2 {
        fill: #a1a0a0;
      }
    </style>
  </defs>
  <title>SmartAlignFont</title>
  <g id="Icon">
    <path class="cls-1" d="M8,22.47a.5.5,0,0,1-.5-.5V8a.5.5,0,0,1,1,0V22A.5.5,0,0,1,8,22.47Z" transform="translate(-0.53 -7.53)"/>
    <rect class="cls-2" x="4.2" y="4.2" width="6.54" height="6.54" rx="0.83" ry="0.83"/>
    <path class="cls-2" d="M15,15.5H1a.5.5,0,0,1-.5-.5.5.5,0,0,1,.5-.5H15a.5.5,0,0,1,0,1Z" transform="translate(-0.53 -7.53)"/>
  </g>
</svg>
